<svg id="Capa_1" data-name="Capa 1" xmlns="http://www.w3.org/2000/svg" xmlns:xlink="http://www.w3.org/1999/xlink" viewBox="0 0 1280 751.61"><defs><style>.cls-1{fill:#426be0;}</style></defs><image width="1280" height="996" transform="translate(0) scale(1 0.75)" xlink:href="background.jpg"/><polygon class="cls-1" points="0 108.76 96.94 33.91 42.75 33.91 0 67.43 0 108.76"/><polygon class="cls-1" points="20.86 127.63 81.74 127.63 205.77 32.84 145.85 32.84 20.86 127.63"/><polygon class="cls-1" points="123.04 127.63 183.92 127.63 306.49 32.84 246.58 32.84 123.04 127.63"/><polygon class="cls-1" points="222.28 129.1 283.15 129.1 409.05 32.84 349.13 32.84 222.28 129.1"/><polygon class="cls-1" points="325.14 129.1 386.02 129.1 511.45 32.84 451.54 32.84 325.14 129.1"/><polygon class="cls-1" points="423.94 129.1 484.82 129.1 614.46 32.87 554.54 32.87 423.94 129.1"/><polygon class="cls-1" points="532.37 127.63 593.24 127.63 716.72 32.87 656.81 32.87 532.37 127.63"/><polygon class="cls-1" points="631.28 127.63 692.16 127.63 818.42 32.87 758.51 32.87 631.28 127.63"/><polygon class="cls-1" points="734.77 129.1 795.65 129.1 923.27 32.87 863.35 32.87 734.77 129.1"/><polygon class="cls-1" points="838.64 128.38 899.52 128.38 1024.1 32.87 964.18 32.87 838.64 128.38"/><polygon class="cls-1" points="940.52 129.1 1001.4 129.1 1126.03 32.87 1066.11 32.87 940.52 129.1"/><polygon class="cls-1" points="1040.71 129.1 1101.58 129.1 1227.5 32.87 1164.24 32.87 1040.71 129.1"/><polygon class="cls-1" points="1147.41 128.07 1205.29 128.07 1279.98 73.75 1279.98 29.11 1147.41 128.07"/><polygon class="cls-1" points="1280 105.64 1251.95 127.63 1280 127.63 1280 105.64"/><polygon class="cls-1" points="0.05 625.13 60.49 625.13 0 675.63 0.05 625.13"/><polygon class="cls-1" points="107.66 625.13 0 705.98 0 719.14 40.66 719.14 163.1 625.13 107.66 625.13"/><polygon class="cls-1" points="84.89 719.14 209.23 623.71 267.98 623.71 142.6 719.14 84.89 719.14"/><polygon class="cls-1" points="186.67 719.14 314.68 623.71 372.38 623.71 245.69 719.14 186.67 719.14"/><polygon class="cls-1" points="290.81 719.14 416.45 623.71 475.73 623.71 346.68 719.14 290.81 719.14"/><polygon class="cls-1" points="393.37 719.14 518.75 623.71 577.51 623.71 449.76 719.14 393.37 719.14"/><polygon class="cls-1" points="494.88 719.14 622.36 623.71 678.5 623.71 552.59 719.14 494.88 719.14"/><polygon class="cls-1" points="597.44 719.14 724.4 623.71 782.9 623.71 655.94 719.14 597.44 719.14"/><polygon class="cls-1" points="701.32 719.14 826.18 623.71 885.72 623.71 759.03 719.14 701.32 719.14"/><polygon class="cls-1" points="928.48 623.71 802.83 719.14 861.06 719.14 986.19 623.71 928.48 623.71"/><polyline class="cls-1" points="1032.35 623.71 904.35 719.14 964.15 719.14 1089.27 623.71"/><polygon class="cls-1" points="1134.91 623.71 1007.96 719.14 1066.71 719.14 1191.84 623.71 1134.91 623.71"/><polygon class="cls-1" points="1237.74 623.71 1110.52 719.14 1168.75 719.14 1280 635.51 1280 623.71 1237.74 623.71"/><polygon class="cls-1" points="1214.39 719.14 1280 719.14 1280 671.43 1214.39 719.14"/></svg>