<svg id="Capa_1" data-name="Capa 1" xmlns="http://www.w3.org/2000/svg" viewBox="0 0 359.21 512"><defs><style>.cls-1{fill:#f9e8a5;}.cls-2{fill:#f7e289;}.cls-3{fill:#fce688;}.cls-4{fill:#f9db5d;}.cls-5{fill:#efc30c;}.cls-6{fill:#d6ad00;}</style></defs><path class="cls-1" d="M376.93,120.93V244.14H311V120.93a55,55,0,1,0-109.92,0V244.14h-66V120.93a120.93,120.93,0,0,1,241.86,0Z" transform="translate(-76.39 0)"/><path class="cls-2" d="M256,66V0A121.07,121.07,0,0,1,376.93,120.93V244.14H311V120.93a55,55,0,0,0-55-55Z" transform="translate(-76.39 0)"/><circle class="cls-3" cx="179.61" cy="332.39" r="164.6"/><path class="cls-4" d="M420.6,332.39A164.6,164.6,0,0,1,256,497V167.8A164.6,164.6,0,0,1,420.6,332.39Z" transform="translate(-76.39 0)"/><path class="cls-5" d="M106.41,332.39c0-82.48,67.1-149.58,149.59-149.58l10-15-10-15c-99,0-179.61,80.57-179.61,179.6S157,512,256,512l10-15-10-15C173.51,482,106.41,414.87,106.41,332.39Z" transform="translate(-76.39 0)"/><path class="cls-6" d="M435.61,332.39C435.61,431.42,355,512,256,512V482c82.49,0,149.59-67.11,149.59-149.59S338.49,182.81,256,182.81v-30C355,152.79,435.61,233.36,435.61,332.39Z" transform="translate(-76.39 0)"/><path class="cls-5" d="M284.79,342.08l6.59,59.34H221.2l6.59-59.34a49.74,49.74,0,1,1,57,0Z" transform="translate(-76.39 0)"/><path class="cls-6" d="M291.38,401.42H256.29V251.56a49.75,49.75,0,0,1,28.5,90.52Z" transform="translate(-76.39 0)"/></svg>