<svg id="Capa_1" enable-background="new 0 0 511.7 511.7" height="512" viewBox="0 0 511.7 511.7" width="512" xmlns="http://www.w3.org/2000/svg"><g><g><path d="m376.71 120.86v123.14h-65.93v-123.14c0-30.3-24.64-54.94-54.93-54.94s-54.93 24.64-54.93 54.94v123.14h-65.93v-123.14c0-66.64 54.22-120.86 120.86-120.86s120.86 54.22 120.86 120.86z" fill="#dfdce7"/><path d="m255.85 65.92v-65.92c66.64 0 120.86 54.22 120.86 120.86v123.14h-65.93v-123.14c0-30.3-24.64-54.94-54.93-54.94z" fill="#cdcbda"/></g><circle cx="255.85" cy="332.2" fill="#7995ff" r="164.5"/><path d="m420.35 332.2c0 90.85-73.65 164.5-164.5 164.5v-329c90.85 0 164.5 73.65 164.5 164.5z" fill="#3c68e8"/><path d="m106.35 332.2c0-82.44 67.06-149.5 149.5-149.5l10-15-10-15c-98.98 0-179.5 80.52-179.5 179.5 0 98.97 80.52 179.5 179.5 179.5l10-15-10-15c-82.44 0-149.5-67.07-149.5-149.5z" fill="#a8baff"/><path d="m435.35 332.2c0 98.97-80.52 179.5-179.5 179.5v-30c82.44 0 149.5-67.07 149.5-149.5 0-82.44-67.06-149.5-149.5-149.5v-30c98.98 0 179.5 80.52 179.5 179.5z" fill="#7995ff"/><g><path d="m284.62 341.876 6.59 59.31h-70.14l6.59-59.31c-12.84-8.99-21.23-23.89-21.23-40.75 0-27.46 22.26-49.71 49.71-49.71s49.71 22.25 49.71 49.71c0 16.86-8.39 31.76-21.23 40.75z" fill="#516991"/><path d="m291.21 401.186h-35.07v-149.77c27.45 0 49.71 22.25 49.71 49.71 0 16.86-8.39 31.76-21.23 40.75z" fill="#344f79"/></g></g></svg>